<?xml version="1.0" standalone="no"?>
<!DOCTYPE svg PUBLIC "-//W3C//DTD SVG 20010904//EN"
 "http://www.w3.org/TR/2001/REC-SVG-20010904/DTD/svg10.dtd">
<svg version="1.0" xmlns="http://www.w3.org/2000/svg"
 width="247.000000pt" height="142.000000pt" viewBox="0 0 247.000000 142.000000"
 preserveAspectRatio="xMidYMid meet">
<metadata>
Created by potrace 1.15, written by Peter Selinger 2001-2017
</metadata>
<g transform="translate(0.000000,142.000000) scale(0.100000,-0.100000)"
fill="#000000" stroke="none">
<path d="M561 1164 c-15 -11 -64 -100 -131 -239 -114 -235 -138 -269 -172
-238 -30 27 -40 84 -28 159 13 77 5 94 -34 76 -39 -17 -58 -56 -64 -127 -8
-111 41 -195 115 -195 15 0 51 13 80 30 41 24 60 44 98 106 58 97 180 366 187
414 4 31 -18 37 -51 14z"/>
<path d="M1518 1135 c-146 -50 -257 -96 -281 -116 l-22 -18 26 -1 c14 0 51 9
82 19 40 14 57 16 57 8 0 -7 -27 -54 -60 -106 -33 -52 -57 -98 -54 -102 11
-18 43 -8 66 19 12 16 48 74 78 130 l55 100 78 23 c75 21 127 50 127 70 0 17
-54 8 -152 -26z"/>
<path d="M1175 1096 c-129 -41 -217 -130 -173 -174 7 -7 18 -12 26 -12 8 0 29
-7 48 -16 26 -12 32 -20 24 -29 -15 -18 -152 -65 -190 -65 -33 0 -90 -25 -90
-40 0 -26 89 -29 162 -5 128 42 208 104 208 161 0 22 -39 48 -87 59 -18 3 -33
11 -33 16 0 14 48 42 118 69 100 39 89 68 -13 36z"/>
<path d="M717 1035 c-27 -30 -114 -200 -117 -230 -5 -48 -1 -55 33 -55 22 0
49 11 76 31 34 24 45 28 57 18 31 -26 62 5 113 114 60 129 62 134 48 140 -25
9 -57 -14 -110 -80 -59 -74 -134 -147 -124 -123 3 8 22 52 41 98 20 46 36 90
36 98 0 22 -27 16 -53 -11z"/>
<path d="M2015 745 c-79 -28 -117 -99 -118 -222 -2 -82 7 -91 75 -74 166 41
202 63 238 145 31 69 -5 135 -85 155 -54 14 -61 13 -110 -4z m130 -79 c34 -22
31 -46 -10 -88 -45 -45 -163 -94 -172 -71 -7 17 4 160 13 175 10 16 139 4 169
-16z"/>
<path d="M1753 655 c-36 -25 -6 -84 37 -70 25 8 27 46 2 68 -16 15 -20 15 -39
2z"/>
<path d="M1512 617 c-44 -52 -76 -181 -54 -213 31 -46 172 5 172 62 0 17 -9
17 -82 -1 -27 -7 -27 -6 -21 31 3 22 11 58 19 82 8 23 14 45 14 47 0 11 -38 4
-48 -8z"/>
<path d="M1121 573 c-32 -39 -61 -110 -61 -150 0 -18 6 -23 24 -23 14 0 28 6
33 12 9 16 63 176 63 188 0 22 -30 8 -59 -27z"/>
<path d="M1279 588 c-32 -34 -79 -142 -79 -183 0 -29 5 -37 27 -46 36 -13 74
-4 122 32 68 49 47 77 -32 44 -20 -8 -39 -15 -42 -15 -10 0 4 55 31 120 13 33
24 62 24 65 0 13 -32 3 -51 -17z"/>
<path d="M587 589 c-96 -23 -205 -111 -248 -203 -33 -69 -38 -136 -13 -157 39
-32 138 -1 208 64 68 65 39 75 -61 22 -36 -19 -69 -32 -74 -29 -5 3 -9 20 -9
37 1 109 160 242 265 223 23 -5 36 -2 46 10 11 14 10 18 -6 30 -21 16 -51 16
-108 3z"/>
<path d="M962 569 c-16 -25 -35 -37 -93 -55 -41 -13 -75 -24 -77 -24 -1 0 1
18 4 40 8 47 -5 52 -40 17 -30 -30 -64 -121 -68 -183 -2 -40 0 -49 15 -52 26
-5 57 26 57 57 0 58 8 66 81 85 39 10 72 16 75 13 3 -2 -1 -25 -8 -51 -15 -56
-3 -76 35 -59 24 11 27 19 62 161 19 80 19 82 -4 82 -10 0 -28 -14 -39 -31z"/>
<path d="M2280 525 c-10 -12 -10 -18 0 -31 19 -21 74 -15 78 10 7 34 -54 50
-78 21z"/>
</g>
</svg>
